<svg width="65" height="33" viewBox="0 0 65 33" fill="none" xmlns="http://www.w3.org/2000/svg">
  <path fill-rule="evenodd" clip-rule="evenodd"
        d="M59.5841 25.6497V27.4999H57.7844V26.5748H58.6842V25.6497H59.5841ZM59.584 21.8811V23.4751C59.584 23.6915 59.5424 23.8966 59.4596 24.0901C59.3764 24.2836 59.2633 24.4543 59.1197 24.6018C58.9762 24.7495 58.8086 24.8675 58.6172 24.956C58.4896 25.0151 58.3577 25.0545 58.2216 25.0742L58.0142 25.0889H56.8082C56.5913 25.0889 56.3871 25.0463 56.1958 24.9611L56.1766 24.9515V25.0889C56.1384 25.7712 55.8956 26.3189 55.4299 26.7323C55.3342 26.8174 55.2272 26.893 55.1093 26.9586C54.9911 27.0241 54.87 27.0831 54.7456 27.1356L54.5577 27.2095L53.9642 27.3989L53.8613 27.4235L53.6304 27.4998L53.3721 26.6535L54.3244 26.2993C54.5125 26.227 54.6705 26.1353 54.7981 26.0237C54.9449 25.9056 55.0454 25.7778 55.0997 25.6399L55.1847 25.3995L55.229 25.2168L55.2385 25.0889V22.9929H56.1766V23.485C56.1766 23.6556 56.2372 23.8015 56.3584 23.9228C56.4492 24.0139 56.5564 24.0707 56.6796 24.0935L56.8082 24.1048H58.0142C58.0971 24.1048 58.1754 24.087 58.2487 24.0508C58.322 24.0148 58.3876 23.9657 58.445 23.9031C58.5024 23.8409 58.547 23.7704 58.5789 23.6915L58.6148 23.5711L58.6268 23.4456V21.8811H59.584ZM20.4826 21.1528L20.6071 21.2807C20.7793 21.4431 20.9534 21.5446 21.1293 21.5851L21.3059 21.6054L24.2059 21.576C24.4357 21.576 24.6542 21.6219 24.8617 21.7136C25.0689 21.8057 25.2509 21.9319 25.4072 22.0926C25.5635 22.2534 25.6863 22.4403 25.7757 22.6534C25.8651 22.8668 25.9098 23.0914 25.9098 23.3275C25.9098 23.5703 25.8651 23.7983 25.7757 24.0114C25.6863 24.2246 25.5652 24.4116 25.412 24.5723C25.2588 24.7332 25.0785 24.8593 24.8713 24.9512C24.733 25.0125 24.5883 25.0533 24.4372 25.0736L24.2059 25.0889H19.1427C19.1044 25.7712 18.8616 26.3189 18.3959 26.7322C18.3002 26.8174 18.1932 26.893 18.0753 26.9586C17.9571 27.0241 17.836 27.0831 17.7116 27.1357L17.5237 27.2095L16.9302 27.3989L16.8273 27.4234L16.5964 27.4997L16.338 26.6535L16.6251 26.5453L16.74 26.5059L17.2905 26.2993C17.4785 26.227 17.6365 26.1353 17.7641 26.0237C17.9109 25.9056 18.0115 25.7778 18.0657 25.6399L18.1508 25.3994L18.1949 25.2168L18.2046 25.0889H17.4295C17.1932 25.0889 16.9714 25.0431 16.764 24.9512C16.5567 24.8593 16.3765 24.7332 16.2232 24.5723C16.0701 24.4116 15.9489 24.2246 15.8596 24.0114C15.7702 23.7983 15.7256 23.5703 15.7256 23.3275C15.7256 23.0914 15.7702 22.865 15.8596 22.6486C15.9489 22.432 16.0701 22.2419 16.2232 22.0777C16.3765 21.9139 16.5567 21.7843 16.764 21.6891C16.9714 21.594 17.1932 21.5464 17.4295 21.5464C17.6718 21.5464 17.8967 21.5924 18.1042 21.6842C18.3114 21.7761 18.4917 21.9041 18.6449 22.0679C18.7981 22.2321 18.9192 22.4207 19.0087 22.6337C19.0682 22.776 19.1079 22.9261 19.1278 23.0843L19.1427 23.3275V24.1048H20.473C20.3518 23.8623 20.2913 23.603 20.2913 23.3275C20.2913 23.0127 20.3805 22.7011 20.5593 22.3926C20.3964 22.314 20.248 22.1947 20.114 22.0348L19.9849 21.8614L19.8988 21.7235L20.4826 21.1528ZM14.8451 21.7727V25.089H13.438C13.2338 25.089 13.0313 25.0464 12.8302 24.9611C12.6292 24.8758 12.4618 24.7578 12.3277 24.6068C12.1746 24.7578 11.9975 24.8758 11.7964 24.9611C11.5955 25.0464 11.3864 25.089 11.1695 25.089C10.9079 25.089 10.6654 25.0267 10.4421 24.9021C10.3718 25.1839 10.2586 25.4447 10.1023 25.6844C9.94599 25.9238 9.75772 26.1304 9.53754 26.3043C9.31743 26.478 9.07481 26.6143 8.81018 26.7126C8.5453 26.8109 8.26613 26.8603 7.97267 26.8603C7.62159 26.8603 7.29132 26.7913 6.98199 26.6536C6.67242 26.5159 6.40121 26.3272 6.16843 26.0878C5.9354 25.8482 5.75202 25.5695 5.61805 25.2514C5.51752 25.0128 5.45469 24.7622 5.42956 24.4995L5.41699 24.2329V22.6782H6.37425V24.2329C6.37425 24.4625 6.41563 24.6773 6.49857 24.8774C6.58145 25.0777 6.69624 25.2528 6.84319 25.4039C6.98983 25.5547 7.16054 25.6745 7.35527 25.763C7.5498 25.8515 7.75556 25.8959 7.97267 25.8959C8.18939 25.8959 8.39377 25.8515 8.58518 25.763C8.77664 25.6745 8.94415 25.5531 9.08766 25.3989C9.23135 25.2448 9.34614 25.0677 9.43228 24.8676C9.48967 24.7342 9.52796 24.5957 9.54712 24.4521L9.56149 24.2329V22.0385H10.5283V23.4359C10.5283 23.6261 10.5889 23.7851 10.7101 23.9129C10.8312 24.041 10.9844 24.1049 11.1695 24.1049C11.3546 24.1049 11.5109 24.0394 11.6386 23.9082C11.7343 23.8098 11.7941 23.6967 11.818 23.5687L11.83 23.4359V22.0385H12.7777V23.4457C12.7904 23.636 12.8589 23.7935 12.9835 23.918C13.0767 24.0115 13.1852 24.0698 13.3091 24.0932L13.438 24.1049H13.8687V21.7727H14.8451ZM29.3607 25.6498V26.575H28.4609V25.6498H29.3607ZM33.4627 23.4852L33.1881 24.2148C33.2505 24.2563 33.2996 24.3102 33.3354 24.3767C33.371 24.4433 33.3889 24.5156 33.3889 24.5936C33.3889 24.7357 33.3387 24.854 33.2383 24.948C33.1379 25.042 33.0162 25.0892 32.8734 25.0892C32.7304 25.0892 32.6077 25.042 32.505 24.948C32.4024 24.854 32.3511 24.7357 32.3511 24.5936C32.3511 24.5203 32.3678 24.4445 32.4013 24.3664L32.8198 23.4852H33.4627ZM51.1893 21.7532L51.687 20.9561L53.4157 22.1633L53.4578 22.1961C53.6619 22.3405 53.8198 22.5257 53.9316 22.752C54.0432 22.9784 54.0991 23.2293 54.0991 23.5048C54.0991 23.7213 54.0575 23.9247 53.9746 24.1149C53.8916 24.3053 53.7784 24.4725 53.6349 24.6168C53.4912 24.7612 53.3268 24.876 53.1419 24.9613C53.0184 25.0181 52.8894 25.056 52.7547 25.0749L52.5484 25.0891H50.4619V24.105H52.5484C52.7143 24.105 52.8579 24.046 52.9793 23.928C53.1004 23.81 53.161 23.6688 53.161 23.5048C53.161 23.3868 53.1372 23.2802 53.0892 23.1851C53.0573 23.1217 53.0176 23.0678 52.9701 23.0233L52.893 22.9637L51.1893 21.7532ZM49.5808 19.25V25.0891H48.6236V19.25H49.5808ZM27.7292 19.25V23.4851C27.7292 23.6558 27.7897 23.8016 27.9109 23.9229C28.0017 24.0141 28.1088 24.071 28.2321 24.0937L28.3607 24.105H29.4616C29.5445 24.105 29.6227 24.0871 29.6961 24.051C29.7694 24.0151 29.8349 23.9658 29.8924 23.9034C29.9498 23.8411 29.9943 23.7706 30.0263 23.6917L30.0621 23.5713L30.0741 23.4458V21.8813H31.0314V23.4753C31.0314 23.6917 30.9897 23.8968 30.907 24.0903C30.8239 24.2838 30.7108 24.4544 30.5671 24.602C30.4236 24.7497 30.256 24.8678 30.0646 24.9563C29.937 25.0153 29.8051 25.0547 29.669 25.0743L29.4616 25.0891H28.3607C28.1438 25.0891 27.9396 25.0466 27.7482 24.9613C27.5567 24.8759 27.3908 24.7612 27.2504 24.6168C27.1101 24.4725 26.9983 24.3019 26.9154 24.105C26.8601 23.9739 26.8233 23.8368 26.8048 23.694L26.791 23.4753V19.25H27.7292ZM44.3459 21.2219C44.6522 21.2219 44.9361 21.2843 45.1977 21.4088L46.6622 22.1272C46.7344 22.1665 46.8195 22.1928 46.9174 22.2059L47.0738 22.2158H47.7438V23.1604L47.3993 23.1949L47.0546 23.2096L46.9206 23.2022L46.8059 23.1801L46.0784 24.233C45.7378 24.7324 45.2798 25.0133 44.7048 25.0757L44.4511 25.0891H41.8862C41.65 25.0891 41.43 25.0349 41.2257 24.9268C41.0215 24.8186 40.846 24.6694 40.6993 24.4789C40.5141 24.6758 40.3005 24.8268 40.058 24.9318C39.8963 25.0018 39.729 25.0483 39.556 25.0716L39.2923 25.0891H36.3251C36.0507 25.0891 35.7922 25.0368 35.5497 24.9318C35.3073 24.8268 35.0966 24.6825 34.9181 24.4986C34.7393 24.3151 34.5989 24.0986 34.4968 23.8493C34.4288 23.6831 34.3834 23.5096 34.3608 23.3289L34.3438 23.0523V21.8616H35.2819V23.0424C35.2819 23.1866 35.3088 23.3244 35.3631 23.4557C35.4173 23.5869 35.4908 23.7001 35.5833 23.7951C35.6758 23.8902 35.7858 23.9658 35.9135 24.0215C35.9986 24.0587 36.0879 24.0834 36.1815 24.0958L36.3251 24.105L39.2923 24.0952C39.4391 24.0952 39.5762 24.0691 39.7038 24.0165C39.8315 23.9641 39.9415 23.8902 40.0342 23.7951C40.1266 23.7001 40.2 23.5886 40.2542 23.4605C40.2903 23.3752 40.3144 23.2864 40.3265 23.1938L40.3356 23.0523V21.8616H41.2736V23.5246C41.2736 23.6754 41.3343 23.8099 41.4555 23.9279C41.5362 24.0066 41.627 24.0591 41.7277 24.0853L41.8862 24.105H44.4416C44.6075 24.105 44.7655 24.0624 44.9154 23.9772C45.0153 23.9204 45.1075 23.849 45.1919 23.763L45.3127 23.6229L45.9156 22.8356L44.7766 22.2846C44.6553 22.2192 44.5148 22.1861 44.3555 22.1861C44.0365 22.1861 43.7417 22.3321 43.4714 22.6236L43.3121 22.816L43.2165 22.9537L42.4603 22.5404L42.5655 22.3634C42.7634 22.0091 43.0074 21.7303 43.2978 21.5269C43.588 21.3236 43.9375 21.2219 44.3459 21.2219ZM17.4295 22.5308C17.3272 22.5308 17.2298 22.5522 17.1374 22.5948C17.0449 22.6375 16.9635 22.6949 16.8934 22.767C16.8231 22.8392 16.7673 22.9229 16.7258 23.0179C16.6843 23.113 16.6637 23.2164 16.6637 23.3278C16.6637 23.5443 16.7386 23.728 16.8887 23.879C17.001 23.9922 17.1305 24.0628 17.2772 24.0911L17.4295 24.1052H18.2048V23.3278C18.2048 23.1115 18.128 22.9244 17.975 22.767C17.8218 22.6096 17.64 22.5308 17.4295 22.5308ZM21.9949 22.5699C21.7907 22.5699 21.6151 22.6456 21.4685 22.7963C21.3217 22.9473 21.2483 23.1244 21.2483 23.3277C21.2483 23.5442 21.3217 23.7279 21.4685 23.8788C21.6151 24.0297 21.7907 24.105 21.9949 24.105C22.2119 24.105 22.3954 24.0314 22.5453 23.8836C22.6952 23.7361 22.7702 23.5508 22.7702 23.3277C22.7702 23.1244 22.6937 22.9473 22.5406 22.7963C22.3874 22.6456 22.2055 22.5699 21.9949 22.5699ZM24.2055 22.5406L23.5355 22.5602C23.6631 22.803 23.727 23.059 23.727 23.3278C23.727 23.5159 23.7 23.6938 23.6462 23.8614L23.5452 24.1052H24.2055C24.4162 24.1052 24.5932 24.0315 24.7367 23.8838C24.8804 23.7362 24.9522 23.5509 24.9522 23.3278C24.9522 23.1114 24.8804 22.9277 24.7367 22.7768C24.6291 22.6637 24.5026 22.5911 24.3572 22.5591L24.2055 22.5406ZM38.9332 20.9365V21.8616H36.6838V20.9365H38.9332ZM13.1034 19.25V21.1002H11.3038V20.1751H12.2035V19.25H13.1034ZM44.8433 19.9228V20.8479H43.9627V19.9228H44.8433Z"
        fill="#8D99A8"/>
  <path fill-rule="evenodd" clip-rule="evenodd"
        d="M40.9364 5.5C42.7919 5.5 44.3197 6.86278 44.4753 8.59301L44.4884 8.88461V10.5769H48.0403C48.9442 10.5769 49.6926 9.93 49.8024 9.09658L49.8162 8.88461V5.5H51.5922V8.88461C51.5922 10.6526 50.1621 12.1084 48.3463 12.2567L48.0403 12.2692H39.1605V13.1153C39.1605 14.8834 37.7304 16.3392 35.9146 16.4875L35.6086 16.5H29.3927C27.5372 16.5 26.0095 15.1372 25.8539 13.4069L25.8408 13.1153V10.5769H27.6167V13.1153C27.6167 13.9767 28.2956 14.6898 29.1702 14.7944L29.3927 14.8076H35.6086C36.5125 14.8076 37.2609 14.1608 37.3707 13.3273L37.3845 13.1153V12.2692H35.6086V10.5769H42.7124V8.88461C42.7124 8.02326 42.0335 7.31013 41.1589 7.20552L40.9364 7.19231H37.3845V5.5H40.9364ZM24.9525 5.50001V8.88462C24.9525 10.6526 23.5224 12.1084 21.7066 12.2567L21.4006 12.2692H19.6247V13.1153C19.6247 14.8834 18.1945 16.3392 16.3787 16.4875L16.0727 16.5H8.96886C7.11335 16.5 5.58572 15.1372 5.43005 13.4069L5.41699 13.1153V10.5769H7.1929V13.1153C7.1929 13.9767 7.87174 14.6898 8.7464 14.7944L8.96886 14.8076H16.0727C16.9767 14.8076 17.725 14.1608 17.8348 13.3273L17.8487 13.1153V12.2692H16.0727V10.5769H21.4006C22.3045 10.5769 23.0529 9.93001 23.1627 9.09659L23.1765 8.88462V5.50001H24.9525ZM24.9525 13.1154V16.5H21.4006V14.8077H23.1765V13.1154H24.9525ZM44.488 13.9615V15.6538H42.712V13.9615H44.488ZM51.5919 13.9615V15.6538H48.0399V13.9615H51.5919ZM56.0314 5.5C57.9898 5.5 59.5833 7.0184 59.5833 8.88461C59.5833 10.6527 58.1531 12.1084 56.3374 12.2568L56.0314 12.2692H52.4795V10.5769H56.0314C57.0106 10.5769 57.8073 9.81769 57.8073 8.88461C57.8073 8.02326 57.1285 7.31013 56.2538 7.20552L56.0314 7.19231H52.4795V5.5H56.0314Z"
        fill="#0040FF"/>
</svg>
